<?xml version="1.0" encoding="UTF-8" standalone="no"?>
<!-- Created with Inkscape (http://www.inkscape.org/) -->

<svg
   width="1000"
   height="250"
   viewBox="0 0 264.58332 66.145835"
   version="1.1"
   id="svg5"
   inkscape:version="1.1.2 (0a00cf5339, 2022-02-04)"
   sodipodi:docname="logo.svg"
   xmlns:inkscape="http://www.inkscape.org/namespaces/inkscape"
   xmlns:sodipodi="http://sodipodi.sourceforge.net/DTD/sodipodi-0.dtd"
   xmlns="http://www.w3.org/2000/svg"
   xmlns:svg="http://www.w3.org/2000/svg">
  <sodipodi:namedview
     id="namedview7"
     pagecolor="#ffffff"
     bordercolor="#666666"
     borderopacity="1.0"
     inkscape:pageshadow="2"
     inkscape:pageopacity="0.0"
     inkscape:pagecheckerboard="0"
     inkscape:document-units="mm"
     showgrid="false"
     units="px"
     width="900px"
     height="250px"
     inkscape:zoom="0.98520771"
     inkscape:cx="484.66937"
     inkscape:cy="126.8768"
     inkscape:window-width="1920"
     inkscape:window-height="939"
     inkscape:window-x="0"
     inkscape:window-y="0"
     inkscape:window-maximized="1"
     inkscape:current-layer="layer1" />
  <defs
     id="defs2" />
  <g
     inkscape:label="Layer 1"
     inkscape:groupmode="layer"
     id="layer1">
    <g
       id="g1267"
       transform="translate(-0.45318807,1.4434879)">
      <path
         style="fill:none;stroke:#ff4b4b;stroke-width:4.7879;stroke-linecap:round;stroke-linejoin:round;stroke-miterlimit:4;stroke-dasharray:none;stroke-opacity:1;paint-order:fill markers stroke"
         d="M 8.6090031,8.2676653 20.766807,54.709617"
         id="path56"
         sodipodi:nodetypes="cc" />
      <path
         style="fill:none;stroke:#ff4b4b;stroke-width:4.7879;stroke-linecap:round;stroke-linejoin:round;stroke-miterlimit:4;stroke-dasharray:none;stroke-opacity:1;paint-order:fill markers stroke"
         d="m 16.685034,36.418533 c 7.84978,-2.046938 15.68685,-2.676612 23.509165,-1.660329 L 32.825365,14.779796 C 29.725079,10.674483 21.735204,11.708799 11.027748,13.352098"
         id="path58"
         sodipodi:nodetypes="cccc" />
      <path
         style="fill:none;stroke:#ff4b4b;stroke-width:4.7879;stroke-linecap:round;stroke-linejoin:round;stroke-miterlimit:4;stroke-dasharray:none;stroke-opacity:1;paint-order:fill markers stroke"
         d="m 36.838862,20.966261 c 5.446711,-0.138173 10.904743,-0.926434 14.708196,2.902037 l 6.606271,20.464203 C 50.537069,43.335262 41.427638,42.996334 32.65106,44.841473 l 7.543139,-10.083269"
         id="path378"
         sodipodi:nodetypes="ccccc" />
      <path
         style="fill:none;stroke:#ff4b4b;stroke-width:4.7879;stroke-linecap:round;stroke-linejoin:round;stroke-miterlimit:4;stroke-dasharray:none;stroke-opacity:1;paint-order:fill markers stroke"
         d="M 32.65106,44.841473 28.920451,34.428894"
         id="path380"
         sodipodi:nodetypes="cc" />
    </g>
    <path
       id="text9878"
       style="font-style:normal;font-weight:normal;font-size:34.081px;line-height:1.25;font-family:sans-serif;fill:#31333f;fill-opacity:1;stroke:none;stroke-width:0.852027"
       d="m 224.18697,20.385797 v 25.287861 h 6.47506 V 20.385797 Z M 84.932424,21.339744 c -2.340229,0 -4.294449,0.352443 -5.862174,1.056783 -1.567728,0.704341 -2.749265,1.635908 -3.544488,2.794662 -0.772502,1.158754 -1.158584,2.453632 -1.158584,3.885034 0,1.272357 0.249967,2.329167 0.749824,3.169831 0.499853,0.817944 1.147294,1.488155 1.942517,2.010731 0.795222,0.499856 1.66986,0.908708 2.624127,1.226798 0.97699,0.31809 1.942714,0.579446 2.896981,0.783932 0.97699,0.204486 1.863014,0.408913 2.658237,0.613399 0.795224,0.204486 1.442662,0.465841 1.942518,0.783931 0.499854,0.31809 0.749824,0.749716 0.749824,1.295011 0,0.386252 -0.136112,0.726792 -0.40876,1.02216 -0.249928,0.272648 -0.658783,0.499848 -1.226799,0.681614 -0.568018,0.159044 -1.317926,0.238744 -2.249474,0.238744 -1.385962,0 -2.783311,-0.215812 -4.191992,-0.647507 C 78.468219,39.800456 77.24114,39.2322 76.173269,38.55058 l -2.21537,4.975924 c 1.136034,0.772501 2.601698,1.409073 4.396632,1.908926 1.817653,0.477134 3.703558,0.715719 5.657535,0.715719 2.362948,0 4.316653,-0.352443 5.861658,-1.056783 1.567725,-0.704342 2.737877,-1.635908 3.510381,-2.794661 0.795221,-1.181476 1.193207,-2.464967 1.193207,-3.850928 0,-1.249635 -0.249971,-2.283675 -0.749824,-3.101618 -0.477134,-0.840666 -1.113705,-1.510877 -1.908929,-2.01073 -0.795224,-0.522576 -1.681247,-0.931431 -2.658234,-1.2268 -0.954268,-0.318089 -1.919994,-0.579445 -2.896981,-0.783931 -0.954268,-0.204486 -1.840291,-0.397528 -2.658237,-0.579293 -0.795221,-0.204486 -1.442662,-0.454456 -1.942516,-0.749825 -0.477133,-0.318089 -0.715719,-0.73833 -0.715719,-1.260905 0,-0.408972 0.125243,-0.7728 0.375172,-1.090889 0.249925,-0.31809 0.65878,-0.56806 1.226798,-0.749825 0.568016,-0.204486 1.317927,-0.306442 2.249475,-0.306442 1.045151,0 2.124215,0.158884 3.237529,0.476974 1.113311,0.295368 2.237919,0.749766 3.373953,1.363224 l 2.078942,-5.01003 c -1.181473,-0.68162 -2.533282,-1.19243 -4.055565,-1.53324 -1.499565,-0.36353 -3.033027,-0.545703 -4.600752,-0.545703 z m 47.679256,0 c -1.90853,0 -3.66971,0.306899 -5.28288,0.920357 -1.61317,0.613459 -3.0219,1.488096 -4.2261,2.62413 -1.18147,1.113312 -2.10165,2.420093 -2.76055,3.919657 -0.6589,1.499564 -0.98806,3.146368 -0.98806,4.941301 0,1.794933 0.32916,3.442253 0.98806,4.941816 0.6589,1.499566 1.57908,2.81773 2.76055,3.953764 1.2042,1.113314 2.61293,1.976564 4.2261,2.590022 1.61317,0.61346 3.37435,0.920358 5.28288,0.920358 1.93126,0 3.69192,-0.306898 5.28237,-0.920358 1.61317,-0.613458 3.01051,-1.476708 4.19199,-2.590022 1.18147,-1.113311 2.10165,-2.420094 2.76055,-3.919657 0.68162,-1.522285 1.02216,-3.18099 1.02216,-4.975923 0,-1.794933 -0.34054,-3.441737 -1.02216,-4.941301 -0.6589,-1.499564 -1.57908,-2.806345 -2.76055,-3.919657 -1.18148,-1.136034 -2.57882,-2.010671 -4.19199,-2.62413 -1.59045,-0.613458 -3.35111,-0.920357 -5.28237,-0.920357 z m -34.933266,0.47749 v 23.856424 h 19.153356 v -5.214151 h -12.47366 v -4.362524 h 10.59935 v -5.044137 h -10.59935 v -4.02146 h 12.03079 v -5.214152 z m 59.403096,0 v 5.350578 h 7.3272 v 18.505846 h 6.74842 V 27.167812 h 7.2931 v -5.350578 z m 30.9795,5.077727 c -2.02214,0 -3.81696,0.409371 -5.38468,1.227315 -1.56773,0.795223 -2.80619,1.908445 -3.71502,3.339848 -0.88611,1.431403 -1.32912,3.078722 -1.32912,4.941818 0,1.863092 0.44301,3.521284 1.32912,4.975405 0.90883,1.431403 2.14729,2.556528 3.71502,3.374472 1.56772,0.817943 3.36254,1.226798 5.38468,1.226798 2.02214,0 3.81696,-0.408855 5.38468,-1.226798 1.59045,-0.817944 2.82892,-1.943069 3.71502,-3.374472 0.88611,-1.454121 1.32912,-3.112313 1.32912,-4.975405 0,-1.863096 -0.44301,-3.510415 -1.32912,-4.941818 -0.8861,-1.431403 -2.12457,-2.544625 -3.71502,-3.339848 -1.56772,-0.817944 -3.36254,-1.227315 -5.38468,-1.227315 z m 22.69784,0 c -2.02214,0 -3.81696,0.409371 -5.38468,1.227315 -1.56773,0.795223 -2.8062,1.908445 -3.71502,3.339848 -0.88611,1.431403 -1.32912,3.078722 -1.32912,4.941818 0,1.863092 0.44301,3.521284 1.32912,4.975405 0.90882,1.431403 2.14729,2.556528 3.71502,3.374472 1.56772,0.817943 3.36254,1.226798 5.38468,1.226798 2.02214,0 3.81696,-0.408855 5.38468,-1.226798 1.59045,-0.817944 2.82892,-1.943069 3.71502,-3.374472 0.88611,-1.454121 1.32912,-3.112313 1.32912,-4.975405 0,-1.863096 -0.44301,-3.510415 -1.32912,-4.941818 -0.8861,-1.431403 -2.12457,-2.544625 -3.71502,-3.339848 -1.56772,-0.817944 -3.36254,-1.227315 -5.38468,-1.227315 z m 32.00218,0 c -1.93126,0 -3.56719,0.272742 -4.90771,0.818037 -1.34052,0.522576 -2.36317,1.249715 -3.06751,2.181263 -0.68162,0.908826 -1.02216,1.953734 -1.02216,3.135209 0,1.045152 0.19304,1.908918 0.57929,2.59054 0.38625,0.68162 0.89758,1.226588 1.53376,1.635559 0.65889,0.38625 1.37465,0.681765 2.14715,0.886251 0.79523,0.181764 1.57878,0.329264 2.35128,0.442865 0.7725,0.113604 1.47687,0.216077 2.11305,0.306959 0.6589,0.09088 1.18161,0.226994 1.56786,0.40876 0.40897,0.159047 0.6134,0.420402 0.6134,0.783932 0,0.386252 -0.21581,0.69315 -0.6475,0.920358 -0.40898,0.227206 -1.15889,0.340548 -2.24948,0.340548 -1.11331,0 -2.24931,-0.1475 -3.40806,-0.442868 -1.15876,-0.31809 -2.16951,-0.73833 -3.03289,-1.260906 l -1.94303,4.430739 c 0.90882,0.545296 2.10175,0.999694 3.57859,1.363223 1.49956,0.363532 3.03354,0.545187 4.60127,0.545187 1.99942,0 3.66899,-0.272743 5.00951,-0.818038 1.36324,-0.545296 2.38589,-1.272434 3.06751,-2.181262 0.70434,-0.908826 1.05627,-1.930964 1.05627,-3.066997 0,-1.04515 -0.19304,-1.897534 -0.57929,-2.556434 -0.38625,-0.681619 -0.90896,-1.215199 -1.56786,-1.601451 -0.63618,-0.408972 -1.35142,-0.71587 -2.14664,-0.920356 -0.77251,-0.204488 -1.54519,-0.352502 -2.31769,-0.443386 -0.7725,-0.113601 -1.48826,-0.215559 -2.14716,-0.30644 -0.63618,-0.113605 -1.1475,-0.261102 -1.53375,-0.442868 -0.38626,-0.204486 -0.5793,-0.488614 -0.5793,-0.852143 0,-0.36353 0.21582,-0.67043 0.64751,-0.920358 0.45441,-0.249927 1.2271,-0.374654 2.31769,-0.374654 0.81794,0 1.68119,0.101955 2.59002,0.306441 0.90883,0.181766 1.81762,0.534207 2.72645,1.056783 l 1.94252,-4.396631 c -0.90883,-0.522575 -2.03344,-0.908658 -3.37396,-1.158585 -1.3178,-0.272648 -2.62406,-0.409277 -3.91914,-0.409277 z m -110.14935,0.03411 c 0.90883,0 1.74931,0.159401 2.52181,0.47749 0.79523,0.31809 1.47682,0.783873 2.04484,1.397331 0.59074,0.590737 1.04513,1.305974 1.36322,2.146639 0.34081,0.817944 0.51108,1.74951 0.51108,2.794662 0,1.022429 -0.17027,1.953995 -0.51108,2.794661 -0.31809,0.840664 -0.77248,1.567805 -1.36322,2.181262 -0.56802,0.590738 -1.24961,1.045136 -2.04484,1.363224 -0.7725,0.31809 -1.61298,0.47749 -2.52181,0.47749 -0.90882,0 -1.76121,-0.1594 -2.55643,-0.47749 -0.7725,-0.318088 -1.4541,-0.772486 -2.04484,-1.363224 -0.56801,-0.613457 -1.02241,-1.340598 -1.36322,-2.181262 -0.31809,-0.840666 -0.47697,-1.772232 -0.47697,-2.794661 0,-1.045152 0.15888,-1.976718 0.47697,-2.794662 0.34081,-0.840665 0.79521,-1.555902 1.36322,-2.146639 0.59074,-0.613458 1.27234,-1.079241 2.04484,-1.397331 0.79522,-0.318089 1.64761,-0.47749 2.55643,-0.47749 z m 55.44933,5.112349 c 0.74978,0 1.40861,0.17027 1.97662,0.511081 0.59074,0.34081 1.05652,0.840751 1.39733,1.499648 0.34081,0.63618 0.51108,1.420249 0.51108,2.351797 0,0.931547 -0.17027,1.73787 -0.51108,2.41949 -0.34081,0.6589 -0.80659,1.158841 -1.39733,1.49965 -0.56801,0.34081 -1.22684,0.51108 -1.97662,0.51108 -0.72706,0 -1.38589,-0.17027 -1.97662,-0.51108 -0.56802,-0.340809 -1.0338,-0.84075 -1.39733,-1.49965 -0.34081,-0.68162 -0.51108,-1.487943 -0.51108,-2.41949 0,-0.931548 0.17027,-1.715617 0.51108,-2.351797 0.36353,-0.658897 0.82931,-1.158838 1.39733,-1.499648 0.59073,-0.340811 1.24956,-0.511081 1.97662,-0.511081 z m 22.69784,0 c 0.74978,0 1.40861,0.17027 1.97662,0.511081 0.59074,0.34081 1.05652,0.840751 1.39733,1.499648 0.34081,0.63618 0.5116,1.420249 0.5116,2.351797 0,0.931547 -0.17079,1.73787 -0.5116,2.41949 -0.34081,0.6589 -0.80659,1.158841 -1.39733,1.49965 -0.56801,0.34081 -1.22684,0.51108 -1.97662,0.51108 -0.72706,0 -1.38589,-0.17027 -1.97662,-0.51108 -0.56802,-0.340809 -1.0338,-0.84075 -1.39733,-1.49965 -0.34082,-0.68162 -0.51108,-1.487943 -0.51108,-2.41949 0,-0.931548 0.17026,-1.715617 0.51108,-2.351797 0.36353,-0.658897 0.82931,-1.158838 1.39733,-1.499648 0.59073,-0.340811 1.24956,-0.511081 1.97662,-0.511081 z" />
  </g>
</svg>
